<svg width="270" height="28" viewBox="0 0 270 28" fill="none" xmlns="http://www.w3.org/2000/svg">
<path d="M249.922 1.13574L241.556 11.8689L247.914 20.0261L244.345 22.6021C240.574 17.7721 234.305 9.72227 234.305 9.72227L220.92 26.8953H270L249.922 1.13574Z" fill="white"/>
<path d="M87.2927 8.09849C84.432 7.95582 82.3166 7.87259 80.9463 7.84882V20.047C82.3406 20.0232 84.456 19.94 87.2927 19.7973V26.8951H66.3425V19.7973C69.107 19.94 71.2105 20.0232 72.6528 20.047V7.84882C71.2105 7.87259 69.107 7.95582 66.3425 8.09849V1.00073H87.2927V8.09849Z" fill="#2988E0"/>
<path d="M52.1348 26.8951C51.005 24.8739 49.1299 21.7828 46.5096 17.6216L42.2908 21.759V26.8951H33.3121C33.5044 22.2821 33.6006 17.9664 33.6006 13.9479C33.6006 9.9294 33.5044 5.61368 33.3121 1.00073H42.2908V11.4512C46.714 7.12359 49.8631 3.6401 51.7382 1.00073H63.4212L52.0627 12.1289C53.7454 14.4591 55.6325 16.9915 57.7239 19.726C59.8394 22.4604 61.7505 24.8501 63.4573 26.8951H52.1348Z" fill="#2988E0"/>
<path d="M0 23.8279C0.817332 22.6152 1.49043 21.4858 2.01929 20.4395C2.57219 19.3933 3.10105 18.1806 3.60588 16.8015C5.31266 17.7764 7.29589 18.5373 9.55557 19.0842C11.8153 19.6311 13.9187 19.9045 15.8659 19.9045C17.8611 19.9045 19.2674 19.7381 20.0847 19.4052C20.9021 19.0485 21.3107 18.668 21.3107 18.2638C21.3107 16.8134 19.0751 16.0881 14.6038 16.0881C9.69981 16.0881 6.14201 15.5888 3.93041 14.5901C1.7188 13.5677 0.612999 11.927 0.612999 9.66805C0.612999 6.45801 1.95919 4.09209 4.65158 2.57029C7.34397 1.0485 10.8417 0.287598 15.1447 0.287598C17.6448 0.287598 20.2049 0.608602 22.8252 1.25061C25.4695 1.86884 27.8494 2.72485 29.9648 3.81864C29.2677 5.388 28.5345 7.30213 27.7652 9.56105C27.621 10.0366 27.5008 10.3933 27.4047 10.6311C26.1787 9.65616 24.3276 8.8477 21.8516 8.20569C19.3756 7.53991 17.188 7.20702 15.2889 7.20702C13.0052 7.20702 11.4667 7.36157 10.6734 7.67069C9.8801 7.95603 9.48345 8.38403 9.48345 8.9547C9.48345 9.52538 10.0243 9.98905 11.1061 10.3457C12.2119 10.6786 13.7985 10.8451 15.8659 10.8451C20.9622 10.8451 24.6642 11.4276 26.972 12.5928C29.2797 13.7341 30.4336 15.4937 30.4336 17.8715C30.4336 21.2004 29.2076 23.602 26.7556 25.0762C24.3036 26.5267 20.5896 27.2519 15.6134 27.2519C12.9451 27.2519 10.2287 26.9666 7.46416 26.3959C4.69966 25.8015 2.2116 24.9455 0 23.8279Z" fill="#2988E0"/>
<path d="M216.378 9.63242C216.378 11.7011 215.861 13.4488 214.827 14.8755C213.818 16.3022 212.075 17.3365 209.599 17.9785C209.887 18.359 210.092 18.6562 210.212 18.8702L216.053 26.8953H206.245C205.188 24.9455 203.517 22.1872 201.233 18.6205H195.932V26.8953H187.423C187.615 22.2824 187.711 17.9666 187.711 13.9481C187.711 9.92964 187.615 5.61392 187.423 1.00098H195.932V1.03664H203.325C208.18 1.03664 211.57 1.80943 213.493 3.35501C215.416 4.90058 216.378 6.99305 216.378 9.63242ZM195.932 7.88473V11.9508H200.8C202.844 11.9508 204.382 11.8913 205.416 11.7724C206.474 11.6298 207.207 11.4158 207.616 11.1304C208.024 10.8451 208.229 10.429 208.229 9.88209C208.229 9.35897 208.036 8.95474 207.652 8.6694C207.267 8.38407 206.546 8.18195 205.488 8.06306C204.43 7.94417 202.868 7.88473 200.8 7.88473H195.932Z" fill="white"/>
<path d="M176.159 26.8953C175.703 25.5399 175.09 23.8398 174.32 21.7949H162.818L161.015 26.8953H151.964L162.06 1.00098H175.33L185.499 26.8953H176.159ZM172.265 16.2308C171.352 13.7341 170.414 11.2374 169.452 8.74074L168.587 6.42238C167.746 8.58618 166.508 11.8557 164.873 16.2308H172.265Z" fill="white"/>
<path d="M132.794 20.3682C141.929 20.3207 148.552 20.1899 152.663 19.9759C152.495 20.9508 152.386 21.9613 152.338 23.0076C152.314 24.03 152.302 25.3259 152.302 26.8953H124.285C124.477 22.2824 124.573 17.9666 124.573 13.9481C124.573 9.92964 124.477 5.61392 124.285 1.00098H152.302V7.45672H132.794V10.8808C133.948 10.9045 135.655 10.9164 137.915 10.9164C141.737 10.9164 145.691 10.8451 149.778 10.7024V16.8372C145.691 16.6945 141.737 16.6232 137.915 16.6232C135.655 16.6232 133.948 16.6351 132.794 16.6588V20.3682Z" fill="white"/>
<path d="M106.005 12.1291H121.402V26.8953H115.056L114.298 20.5822C113.577 22.8411 112.291 24.5175 110.44 25.6113C108.589 26.7051 106.329 27.252 103.661 27.252C101.233 27.252 99.0695 26.7169 97.1704 25.6469C95.2953 24.5769 93.8169 23.0432 92.7351 21.0459C91.6774 19.0485 91.1486 16.7183 91.1486 14.0551C91.1486 9.79885 92.4347 6.43425 95.0068 3.96133C97.579 1.48841 101.582 0.251953 107.014 0.251953C110.115 0.251953 112.844 0.751293 115.2 1.74997C117.58 2.74865 119.599 4.29423 121.258 6.3867C120.176 6.93359 118.06 8.02738 114.911 9.66807L114.01 10.1674C113.072 9.24006 111.979 8.5505 110.728 8.09872C109.478 7.62315 108.156 7.38537 106.762 7.38537C104.454 7.38537 102.735 7.99171 101.606 9.2044C100.476 10.3933 99.9108 11.8675 99.9108 13.6271C99.9108 15.5294 100.512 17.063 101.714 18.2282C102.94 19.3933 104.803 19.9759 107.303 19.9759C108.385 19.9759 109.43 19.8213 110.44 19.5122C111.474 19.2031 112.339 18.6681 113.036 17.9072H106.005V12.1291Z" fill="white"/>
</svg>
