<svg width="270" height="28" viewBox="0 0 270 28" fill="none" xmlns="http://www.w3.org/2000/svg">
<g clip-path="url(#clip0_3_35)">
<path d="M249.515 0.891998L241.162 11.7253L247.51 19.9587L243.946 22.5587C240.182 17.6837 233.924 9.55867 233.924 9.55867L220.56 26.892H269.56L249.515 0.891998Z" fill="#111111"/>
<path d="M87.1504 7.92001C84.2944 7.77601 82.1824 7.69201 80.8144 7.66801V19.98C82.2064 19.956 84.3184 19.872 87.1504 19.728V26.892H66.2344V19.728C68.9944 19.872 71.0944 19.956 72.5344 19.98V7.66801C71.0944 7.69201 68.9944 7.77601 66.2344 7.92001V0.756012H87.1504V7.92001Z" fill="#2988E0"/>
<path d="M52.0498 26.892C50.9218 24.852 49.0498 21.732 46.4338 17.532L42.2218 21.708V26.892H33.2578C33.4498 22.236 33.5458 17.88 33.5458 13.824C33.5458 9.76801 33.4498 5.41201 33.2578 0.756012H42.2218V11.304C46.6378 6.93601 49.7818 3.42001 51.6538 0.756012H63.3178L51.9778 11.988C53.6578 14.34 55.5418 16.896 57.6298 19.656C59.7418 22.416 61.6498 24.828 63.3538 26.892H52.0498Z" fill="#2988E0"/>
<path d="M0 23.796C0.816 22.572 1.488 21.432 2.016 20.376C2.568 19.32 3.096 18.096 3.6 16.704C5.304 17.688 7.284 18.456 9.54 19.008C11.796 19.56 13.896 19.836 15.84 19.836C17.832 19.836 19.236 19.668 20.052 19.332C20.868 18.972 21.276 18.588 21.276 18.18C21.276 16.716 19.044 15.984 14.58 15.984C9.684 15.984 6.132 15.48 3.924 14.472C1.716 13.44 0.612 11.784 0.612 9.50401C0.612 6.26401 1.956 3.87601 4.644 2.34001C7.332 0.80401 10.824 0.0360107 15.12 0.0360107C17.616 0.0360107 20.172 0.360012 22.788 1.00801C25.428 1.63201 27.804 2.49601 29.916 3.60001C29.22 5.18401 28.488 7.11601 27.72 9.39601C27.576 9.87601 27.456 10.236 27.36 10.476C26.136 9.49201 24.288 8.67601 21.816 8.02801C19.344 7.35601 17.16 7.02001 15.264 7.02001C12.984 7.02001 11.448 7.17601 10.656 7.48801C9.864 7.77601 9.468 8.20801 9.468 8.78401C9.468 9.36001 10.008 9.82801 11.088 10.188C12.192 10.524 13.776 10.692 15.84 10.692C20.928 10.692 24.624 11.28 26.928 12.456C29.232 13.608 30.384 15.384 30.384 17.784C30.384 21.144 29.16 23.568 26.712 25.056C24.264 26.52 20.556 27.252 15.588 27.252C12.924 27.252 10.212 26.964 7.452 26.388C4.692 25.788 2.208 24.924 0 23.796Z" fill="#2988E0"/>
<path d="M216.025 9.46798C216.025 11.556 215.509 13.32 214.477 14.76C213.469 16.2 211.729 17.244 209.257 17.892C209.545 18.276 209.749 18.576 209.869 18.792L215.701 26.892H205.909C204.853 24.924 203.185 22.14 200.905 18.54H195.613V26.892H187.117C187.309 22.236 187.405 17.88 187.405 13.824C187.405 9.76798 187.309 5.41198 187.117 0.755981H195.613V0.791982H202.993C207.841 0.791982 211.225 1.57198 213.145 3.13198C215.065 4.69198 216.025 6.80398 216.025 9.46798ZM195.613 7.70398V11.808H200.473C202.513 11.808 204.049 11.748 205.081 11.628C206.137 11.484 206.869 11.268 207.277 10.98C207.685 10.692 207.889 10.272 207.889 9.71998C207.889 9.19198 207.697 8.78398 207.313 8.49598C206.929 8.20798 206.209 8.00398 205.153 7.88398C204.097 7.76398 202.537 7.70398 200.473 7.70398H195.613Z" fill="#111111"/>
<path d="M175.872 26.892C175.416 25.524 174.804 23.808 174.036 21.744H162.552L160.752 26.892H151.716L161.796 0.755981H175.044L185.196 26.892H175.872ZM171.984 16.128C171.072 13.608 170.136 11.088 169.176 8.56798L168.312 6.22798C167.472 8.41198 166.236 11.712 164.604 16.128H171.984Z" fill="#111111"/>
<path d="M132.578 20.304C141.698 20.256 148.31 20.124 152.414 19.908C152.246 20.892 152.138 21.912 152.09 22.968C152.066 24 152.054 25.308 152.054 26.892H124.082C124.274 22.236 124.37 17.88 124.37 13.824C124.37 9.76798 124.274 5.41198 124.082 0.755981H152.054V7.27198H132.578V10.728C133.73 10.752 135.434 10.764 137.69 10.764C141.506 10.764 145.454 10.692 149.534 10.548V16.74C145.454 16.596 141.506 16.524 137.69 16.524C135.434 16.524 133.73 16.536 132.578 16.56V20.304Z" fill="#111111"/>
<path d="M105.832 11.988H121.204V26.892H114.868L114.112 20.52C113.392 22.8 112.108 24.492 110.26 25.596C108.412 26.7 106.156 27.252 103.492 27.252C101.068 27.252 98.908 26.712 97.012 25.632C95.14 24.552 93.664 23.004 92.584 20.988C91.528 18.972 91 16.62 91 13.932C91 9.636 92.284 6.24 94.852 3.744C97.42 1.248 101.416 0 106.84 0C109.936 0 112.66 0.504 115.012 1.512C117.388 2.52 119.404 4.08 121.06 6.192C119.98 6.744 117.868 7.848 114.724 9.504L113.824 10.008C112.888 9.072 111.796 8.376 110.548 7.92C109.3 7.44 107.98 7.2 106.588 7.2C104.284 7.2 102.568 7.812 101.44 9.036C100.312 10.236 99.748 11.724 99.748 13.5C99.748 15.42 100.348 16.968 101.548 18.144C102.772 19.32 104.632 19.908 107.128 19.908C108.208 19.908 109.252 19.752 110.26 19.44C111.292 19.128 112.156 18.588 112.852 17.82H105.832V11.988Z" fill="#111111"/>
</g>
<defs>
<clipPath id="clip0_3_35">
<rect width="270" height="28" fill="white"/>
</clipPath>
</defs>
</svg>
