<svg width="16" height="16" viewBox="0 0 16 16" fill="none" xmlns="http://www.w3.org/2000/svg">
<path d="M7.06666 8.47334C7.00417 8.41136 6.95457 8.33763 6.92073 8.25639C6.88688 8.17515 6.86946 8.08801 6.86946 8C6.86946 7.912 6.88688 7.82486 6.92073 7.74362C6.95457 7.66238 7.00417 7.58865 7.06666 7.52667L10.1267 4.47334C10.1891 4.41136 10.2387 4.33763 10.2726 4.25639C10.3064 4.17515 10.3239 4.08801 10.3239 4C10.3239 3.912 10.3064 3.82486 10.2726 3.74362C10.2387 3.66238 10.1891 3.58865 10.1267 3.52667C10.0017 3.4025 9.83278 3.33281 9.65666 3.33281C9.48053 3.33281 9.31156 3.4025 9.18666 3.52667L6.12665 6.58667C5.75212 6.96167 5.54175 7.47 5.54175 8C5.54175 8.53001 5.75212 9.03834 6.12665 9.41334L9.18666 12.4733C9.31083 12.5965 9.47843 12.6659 9.65332 12.6667C9.74106 12.6672 9.82804 12.6504 9.90926 12.6172C9.99049 12.584 10.0644 12.5351 10.1267 12.4733C10.1891 12.4114 10.2387 12.3376 10.2726 12.2564C10.3064 12.1751 10.3239 12.088 10.3239 12C10.3239 11.912 10.3064 11.8249 10.2726 11.7436C10.2387 11.6624 10.1891 11.5886 10.1267 11.5267L7.06666 8.47334Z" fill="#111111"/>
</svg>
