<svg width="16" height="16" viewBox="0 0 16 16" fill="none" xmlns="http://www.w3.org/2000/svg">
<path d="M7.06641 8.47334C7.00393 8.41136 6.95433 8.33763 6.92048 8.25639C6.88664 8.17515 6.86921 8.08801 6.86921 8C6.86921 7.912 6.88664 7.82486 6.92048 7.74362C6.95433 7.66238 7.00393 7.58865 7.06641 7.52667L10.1264 4.47334C10.1889 4.41136 10.2385 4.33763 10.2723 4.25639C10.3062 4.17515 10.3236 4.08801 10.3236 4C10.3236 3.912 10.3062 3.82486 10.2723 3.74362C10.2385 3.66238 10.1889 3.58865 10.1264 3.52667C10.0015 3.4025 9.83253 3.33281 9.65641 3.33281C9.48029 3.33281 9.31132 3.4025 9.18641 3.52667L6.12641 6.58667C5.75188 6.96167 5.5415 7.47 5.5415 8C5.5415 8.53001 5.75188 9.03834 6.12641 9.41334L9.18641 12.4733C9.31058 12.5965 9.47818 12.6659 9.65308 12.6667C9.74082 12.6672 9.82779 12.6504 9.90902 12.6172C9.99024 12.584 10.0641 12.5351 10.1264 12.4733C10.1889 12.4114 10.2385 12.3376 10.2723 12.2564C10.3062 12.1751 10.3236 12.088 10.3236 12C10.3236 11.912 10.3062 11.8249 10.2723 11.7436C10.2385 11.6624 10.1889 11.5886 10.1264 11.5267L7.06641 8.47334Z" fill="#2988E0"/>
</svg>
