<svg width="24" height="24" viewBox="0 0 24 24" fill="none" xmlns="http://www.w3.org/2000/svg">
<path d="M9.857 5.14286H14.1427C14.1427 4.57454 13.917 4.02949 13.5151 3.62763C13.1132 3.22576 12.5682 3 11.9999 3C11.4315 3 10.8865 3.22576 10.4846 3.62763C10.0828 4.02949 9.857 4.57454 9.857 5.14286ZM8.57129 5.14286C8.57129 4.23354 8.93251 3.36147 9.57549 2.71849C10.2185 2.07551 11.0905 1.71428 11.9999 1.71428C12.9092 1.71428 13.7812 2.07551 14.4242 2.71849C15.0672 3.36147 15.4284 4.23354 15.4284 5.14286H20.7856C20.9561 5.14286 21.1196 5.21059 21.2401 5.33114C21.3607 5.4517 21.4284 5.61522 21.4284 5.78571C21.4284 5.95621 21.3607 6.11972 21.2401 6.24028C21.1196 6.36084 20.9561 6.42857 20.7856 6.42857H19.6627L18.6196 18.9454C18.5437 19.856 18.1284 20.7048 17.456 21.3235C16.7836 21.9422 15.9033 22.2856 14.9896 22.2857H9.01015C8.09643 22.2856 7.21609 21.9422 6.54372 21.3235C5.87135 20.7048 5.45604 19.856 5.38015 18.9454L4.337 6.42857H3.21415C3.04365 6.42857 2.88014 6.36084 2.75958 6.24028C2.63902 6.11972 2.57129 5.95621 2.57129 5.78571C2.57129 5.61522 2.63902 5.4517 2.75958 5.33114C2.88014 5.21059 3.04365 5.14286 3.21415 5.14286H8.57129ZM6.66157 18.8383C6.71059 19.4275 6.97925 19.9768 7.41427 20.3772C7.84929 20.7776 8.4189 20.9999 9.01015 21H14.9896C15.5808 20.9999 16.1504 20.7776 16.5854 20.3772C17.0205 19.9768 17.2891 19.4275 17.3381 18.8383L18.3736 6.42857H5.627L6.66157 18.8383ZM10.0713 9.42857C10.2418 9.42857 10.4053 9.4963 10.5259 9.61686C10.6464 9.73742 10.7141 9.90093 10.7141 10.0714V17.3571C10.7141 17.5276 10.6464 17.6912 10.5259 17.8117C10.4053 17.9323 10.2418 18 10.0713 18C9.90079 18 9.73728 17.9323 9.61672 17.8117C9.49616 17.6912 9.42843 17.5276 9.42843 17.3571V10.0714C9.42843 9.90093 9.49616 9.73742 9.61672 9.61686C9.73728 9.4963 9.90079 9.42857 10.0713 9.42857ZM14.5713 10.0714C14.5713 9.90093 14.5036 9.73742 14.383 9.61686C14.2624 9.4963 14.0989 9.42857 13.9284 9.42857C13.7579 9.42857 13.5944 9.4963 13.4739 9.61686C13.3533 9.73742 13.2856 9.90093 13.2856 10.0714V17.3571C13.2856 17.5276 13.3533 17.6912 13.4739 17.8117C13.5944 17.9323 13.7579 18 13.9284 18C14.0989 18 14.2624 17.9323 14.383 17.8117C14.5036 17.6912 14.5713 17.5276 14.5713 17.3571V10.0714Z" fill="#2988E0"/>
</svg>
